<svg xmlns="http://www.w3.org/2000/svg" viewBox="0 0 96 96" width="96" height="96">
<path fill="#ffffff" d="M57.997 28.417L60.826 25.589L70.725 35.488L67.897 38.317L57.997 28.417Z"/>
<path fill="#ffffff" d="M20.39 67.43C20.236 67.584 20.15 67.792 20.15 68.01C20.15 68.228 20.236 68.436 20.39 68.59L27.71 75.91C27.864 76.064 28.072 76.15 28.29 76.15C28.508 76.15 28.716 76.064 28.87 75.91L31.87 72.91L23.38 64.42L20.39 67.43Z"/>
<path fill="#ffffff" d="M46.68 55.28L41 49.63L39.27 50.21C39.01 50.298 38.774 50.445 38.58 50.64L37.46 51.76L44.53 58.83L45.65 57.71C45.845 57.516 45.992 57.28 46.08 57.02L46.68 55.28Z"/>
<path fill="#ffffff" d="M61.53 24.88L71.43 34.78L72.82 34.35C73.288 34.21 73.644 33.827 73.75 33.35L76.16 21.09C76.213 20.836 76.134 20.573 75.95 20.39C75.767 20.206 75.504 20.127 75.25 20.18L63 22.56C62.523 22.666 62.14 23.022 62 23.49L61.53 24.88Z"/>
<path fill="#ffffff" d="M66.94 40.44C67.191 40.267 67.349 39.99 67.371 39.686C67.392 39.383 67.274 39.086 67.05 38.88L65.77 37.6L47.62 52L46.68 51L64.83 36.66L59.64 31.47L45.27 49.63L44.33 48.69L58.7 30.54L57.42 29.26C57.214 29.036 56.917 28.918 56.614 28.939C56.31 28.961 56.033 29.119 55.86 29.37L44.08 45.09C43.929 45.289 43.789 45.496 43.66 45.71L41.73 48.93L47.39 54.59L50.61 52.66C50.824 52.531 51.031 52.391 51.23 52.24L66.94 40.44Z"/>
<path fill="#ffffff" d="M34 69.14C33.299 68.436 33.3 67.298 34.003 66.596C34.706 65.894 35.844 65.894 36.547 66.596C37.25 67.298 37.251 68.436 36.55 69.14C36.212 69.479 35.753 69.669 35.275 69.669C34.797 69.669 34.338 69.479 34 69.14L34 69.14ZM30.54 65.75C29.839 65.046 29.84 63.908 30.543 63.206C31.246 62.504 32.384 62.504 33.087 63.206C33.79 63.908 33.791 65.046 33.09 65.75C32.389 66.443 31.261 66.443 30.56 65.75L30.54 65.75ZM27 62.21C26.299 61.506 26.3 60.368 27.003 59.666C27.706 58.964 28.844 58.964 29.547 59.666C30.25 60.368 30.251 61.506 29.55 62.21C29.212 62.549 28.753 62.739 28.275 62.739C27.797 62.739 27.338 62.549 27 62.21L27 62.21ZM38.42 70.36L43.73 59.36L36.78 52.41L26 57.87C25.691 58.024 25.464 58.305 25.38 58.64L24.1 63.77L32.59 72.26L37.64 71C37.983 70.914 38.269 70.679 38.42 70.36L38.42 70.36Z"/>
</svg>
