<svg xmlns="http://www.w3.org/2000/svg" viewBox="0 0 384 96" width="384" height="96">
<path fill="#ffffff" d="M380.1 52.48L368.57 50.8L368.57 46.33L380.1 44.65L380.1 52.48ZM366.25 52L364.45 54.3L351 54.3L351 42.84L364.42 42.84L366.22 45.14L366.25 52ZM337.56 41.72L337.56 40.54L339 40.54L349 41.54L349 42.75L337.56 41.72ZM348.86 52.42L337.5 53.42L337.5 43.73L348.86 44.73L348.86 52.42ZM335.5 57.77L328.27 57.77L328.27 42.37L335.5 42.37L335.5 57.77ZM327.05 63.06L325 62.94L325.1 60.44L324.1 60.44L324.25 57.95L321.67 57.8L321.52 60.34L309.65 59.85L307.03 60.73L284.17 59.78L284.17 55.98L285.92 55.98C286.971 55.967 287.938 55.406 288.47 54.5C288.955 54.817 289.521 54.987 290.1 54.99L325.04 54.99C325.484 54.988 325.922 54.886 326.32 54.69L326.32 59.81L327.32 59.81L327.05 63.06ZM336.05 65.62C335.926 67.736 334.116 69.354 332 69.24L328.76 69L329.21 61.3L332.45 61.49C333.481 61.552 334.444 62.023 335.126 62.798C335.808 63.574 336.151 64.59 336.08 65.62L336.05 65.62ZM307.16 66.46L240.16 63.69C240.231 63.381 240.278 63.067 240.3 62.75L240.4 61.03C240.435 60.657 240.435 60.283 240.4 59.91L307.21 62.67L307.39 62.67L310 61.8L323.12 62.35L323 64.4L295.57 63L295.47 65L322.91 66.37L322.84 68.06L309.72 67.52L307.16 66.46ZM238.26 62.63C238.089 64.801 236.214 66.436 234.04 66.31L227.33 66.4C225.171 66.271 223.525 64.419 223.65 62.26L223.81 59.56C223.925 57.504 225.611 55.888 227.67 55.86L227.88 55.86L234.68 56.76C236.839 56.889 238.485 58.741 238.36 60.9L238.26 62.63ZM247.07 54.95L247.07 58.2L239.66 57.89C238.901 56.442 237.576 55.374 236 54.94L247.07 54.95ZM221.72 51.95L221.72 50.6L276.06 50.6L276.06 52C276.06 52.265 275.955 52.52 275.767 52.707C275.58 52.895 275.325 53 275.06 53L222.66 53C222.143 52.953 221.748 52.519 221.75 52L221.72 51.95ZM222.72 43.6L275.12 43.6C275.385 43.6 275.64 43.705 275.827 43.893C276.015 44.08 276.12 44.335 276.12 44.6L276.12 45.74L221.75 45.74L221.75 44.59C221.766 44.061 222.191 43.636 222.72 43.62L222.72 43.6ZM276.09 49.6L221.75 49.6L221.75 46.73L276.09 46.73L276.09 49.6ZM251.94 54.94L251.94 58.39L249.1 58.27L249.1 54.94L251.94 54.94ZM253.94 58.47L253.94 54.94L275.12 54.94C275.626 54.936 276.122 54.802 276.56 54.55C277.107 55.396 278.043 55.91 279.05 55.92L282.19 55.92L282.19 59.63L253.94 58.47ZM278.09 43.6C278.09 43.335 278.195 43.08 278.383 42.893C278.57 42.705 278.825 42.6 279.09 42.6L280.55 42.6L280.55 51.12L284.48 51.12L284.48 42.64L285.98 42.64C286.245 42.64 286.5 42.745 286.687 42.933C286.875 43.12 286.98 43.375 286.98 43.64L286.98 53C286.98 53.265 286.875 53.52 286.687 53.707C286.5 53.895 286.245 54 285.98 54L279.09 54C278.825 54 278.57 53.895 278.383 53.707C278.195 53.52 278.09 53.265 278.09 53L278.09 43.61L278.09 43.6ZM281.52 42.6L281.52 42.6L281.52 37.56L283.37 37.56L283.37 42.64L283.37 42.64L283.37 50.16L281.44 50.16L281.52 42.6ZM290.13 43.6L325.07 43.6C325.335 43.6 325.59 43.705 325.777 43.893C325.965 44.08 326.07 44.335 326.07 44.6L326.07 45.74L289.16 45.74L289.16 44.59C289.176 44.061 289.601 43.636 290.13 43.62L290.13 43.6ZM289.13 50.6L326 50.6L326 52C326 52.265 325.895 52.52 325.707 52.707C325.52 52.895 325.265 53 325 53L290.13 53C289.865 53 289.61 52.895 289.423 52.707C289.235 52.52 289.13 52.265 289.13 52L289.13 50.6ZM326 49.6L289.16 49.6L289.16 46.73L326 46.73L326 49.6ZM328.89 36L338.77 36L352.11 38L352.11 39.8L339.11 38.55L328.89 38.55L328.89 36ZM219.62 54L193.33 54L193.33 43.21L219.62 43.21L219.62 54ZM186.43 54L186.43 43.21L191.32 43.21L191.32 54L186.43 54ZM185.43 56.71L184.73 56.71L184.22 56.56L184.22 53.35C184.285 52.669 184.073 51.991 183.63 51.47C182.833 50.695 181.738 50.304 180.63 50.4L167.15 50.4L167.15 56L163.48 56L163.48 42.15L167.15 42.15L167.15 46.57L182.59 46.57L182.59 43.21L185.44 43.21L185.44 54L185.44 54L185.43 56.71ZM168.15 56L168.15 51.41L180.61 51.41C181.427 51.332 182.24 51.592 182.86 52.13C183.133 52.452 183.263 52.87 183.22 53.29L183.22 56.29L182.41 56.05L168.15 56ZM133.47 61.92C131.596 59.872 128.914 58.752 126.14 58.86C124.45 58.864 122.78 59.226 121.24 59.92L122.24 58.03L133.44 58.03L133.47 61.92ZM128.93 72.18C126.93 71.56 126.38 68.9 126.29 68.34C126.89 66.28 125.66 63.28 125.29 62.42L126.14 60.86C131.62 60.86 133.23 64.92 133.48 65.67C133.51 66.48 133.25 70.9 129 72.17L128.93 72.18ZM116.87 68.18L116.61 68.28L118.78 64.35L118.78 64.35C120.299 62.41 122.547 61.177 125 60.94L124.21 62.38L124.32 62.61C124.32 62.61 126.03 66.14 125.32 68.14L125.32 68.25L125.32 68.36C125.541 69.873 126.242 71.275 127.32 72.36L123.9 72.36C123.84 72.38 118.39 72.11 116.92 68.19L116.87 68.18ZM106.25 82.86L106.55 83.36C107.392 84.847 107.448 86.654 106.7 88.19L103.48 89.36L96.94 85L96.81 84.93C95.762 84.528 94.924 83.715 94.49 82.68C94.249 81.84 94.32 80.942 94.69 80.15L101 68.31L101.09 68.14L101.09 67.95C101.43 64.68 100.76 62.22 99.09 60.66C97.678 59.448 95.86 58.812 94 58.88L93.82 58.88L93.82 56.14L93.82 56.14L93.82 54.2L119 54.2L120.79 56.62L106.25 82.86ZM87.25 59.34L86.25 59.34L86.25 61C86.25 61.39 86.095 61.764 85.819 62.039C85.544 62.315 85.17 62.47 84.78 62.47L82.44 62.47C81.64 62.454 81 61.8 81 61L81 59.85L81 59.85L81 58.14L91.82 58.14L91.82 59.35L87.25 59.34ZM63.25 55.07L48.45 55.07C44.18 54.9 35.97 56.3 35.6 63.07C35.674 64.454 36.075 65.801 36.77 67L36.15 67.63L32.9 65.46L32.79 65.4C30.52 64.481 27.948 64.704 25.87 66L12.87 73.32L10.54 72.49L11.25 50.18C11.25 49.76 12.35 40.01 5.25 35.81L4.66 32.47C8.137 31.273 11.953 31.552 15.22 33.24L27.52 39.47L27.64 39.52C27.97 39.64 35.74 42.36 42.74 42.52L70.81 42.52L70.81 44.52C70.67 44.96 69.68 47.7 66.81 47.7L66.81 48.7C70.67 48.7 71.81 44.76 71.81 44.7L71.81 41.45L71.81 41.45L71.81 40.45L82.26 40.45L82.26 42.45L82.26 42.45L82.26 44.32L83.26 44.32L83.26 42.48L102.11 42.48L122.68 38.79L125.08 35.6L130.64 35.6L130.64 39.68L129.57 39.68L129.57 51.49L159.57 51.49L159.57 35.59L160.19 35.59L161.43 36.95L161.43 38.86L161.43 38.86L161.43 56L121.55 56L119.46 53.18L92.79 53.18L92.79 56.12L75.79 56.12L63.25 55.07ZM158.66 40.67L158.66 50.5L130.66 50.5L130.66 40.66L158.66 40.67ZM131.66 39.67L131.66 35.59L158.66 35.59L158.66 39.67L131.66 39.67ZM175.32 42.15L175.32 45.57L168.15 45.57L168.15 42.15L175.32 42.15ZM178.94 39.81L179.11 39.81C179.759 39.749 180.408 39.93 180.93 40.32C181.408 40.831 181.645 41.523 181.58 42.22L181.58 43.22L181.58 43.22L181.58 45.57L176.31 45.57L176.31 42.14L176.54 41.47C176.898 40.457 177.866 39.787 178.94 39.81L178.94 39.81ZM188.35 36.74L189.17 39.04L201.34 39.04L201.34 41.22L185 41.22L185 36.74L188.35 36.74ZM382.1 42.34L368.19 44.34L365.42 40.81L354.11 40.81L354.11 36.22L339 34L326.89 34L326.89 40.37L326.34 40.37L326.34 41.92C325.942 41.724 325.504 41.622 325.06 41.62L290.13 41.62C289.551 41.623 288.985 41.793 288.5 42.11C287.968 41.204 287.001 40.643 285.95 40.63L285.41 40.63L285.41 35.56L279.56 35.56L279.56 40.64L279.06 40.64C278.051 40.644 277.112 41.155 276.56 42C276.122 41.748 275.626 41.614 275.12 41.61L222.72 41.61C222.347 41.61 221.977 41.681 221.63 41.82L221.63 41.2L203.34 41.2L203.34 37L190.58 37L189.76 34.7L183 34.7L183 39.7C182.807 39.359 182.561 39.052 182.27 38.79C181.35 38.04 180.172 37.681 178.99 37.79C177.313 37.718 175.749 38.633 174.99 40.13L163.48 40.13L163.48 36.13L161.12 33.55L124.12 33.55L121.57 37L102 40.48L84.26 40.48L84.26 38.48L69.8 38.48L69.8 40.48L42.8 40.48C36.46 40.33 29.13 37.86 28.41 37.6L16.14 31.4C12.098 29.302 7.329 29.123 3.14 30.91L2.47 31.24L3.47 37.05L3.9 37.28C10.26 40.67 9.29 49.8 9.28 50L8.52 73.83L13.08 75.46L26.84 67.69C28.332 66.746 30.174 66.536 31.84 67.12L36.39 70.12L39.39 67.12L38.79 66.42C38.092 65.446 37.679 64.296 37.6 63.1C37.95 56.72 48.27 57.1 48.41 57.1L63.17 57.1L75.72 58.17L80 58.17L80 59.37L80 59.37L80 61C80 61.655 80.26 62.283 80.723 62.747C81.187 63.21 81.815 63.47 82.47 63.47L84.85 63.47C86.202 63.454 87.29 62.353 87.29 61L87.29 60.37L91.82 60.37L91.82 61.19L93 61C93 61 95.94 60.53 97.7 62.16C98.87 63.25 99.34 65.07 99.11 67.59L92.92 79.18C92.3 80.45 92.182 81.907 92.59 83.26C93.175 84.802 94.368 86.035 95.89 86.67L103.26 91.59L108.13 89.82L108.31 89.52C109.459 87.471 109.563 84.998 108.59 82.86L115.65 70.11C118.07 74.11 123.56 74.37 123.85 74.38L128.36 74.38C134.16 73.38 135.58 68.15 135.51 65.52L135.51 58L182 58L184.32 58.7L187.45 58.7L187.45 56L191.35 56L191.35 58L193.35 58L193.35 56L221.64 56L221.64 54.73C221.987 54.869 222.357 54.94 222.73 54.94L224.38 54.94C222.895 55.975 221.967 57.633 221.86 59.44L221.7 62.14C221.607 63.719 222.15 65.269 223.208 66.445C224.266 67.621 225.75 68.325 227.33 68.4L234.04 68.31C236.151 68.441 238.17 67.429 239.33 65.66L306.75 68.45L309.29 69.54L320.94 70.02L320.82 72.02L323.4 72.17L323.52 70.09L324.77 70.14L324.9 67.08L326.9 67.2L326.68 70.9L331.92 71.21L332.27 71.21C335.188 71.207 337.66 69.058 338.067 66.168C338.474 63.279 336.694 60.53 333.89 59.72L337.61 59.72L337.61 55.41L349.08 54.41L349.08 56.3L365.47 56.3L368.24 52.77L382.15 54.77L382.1 42.34Z"/>
<path fill="#ffffff" d="M127.38 45.1L120.5 45.1L120.5 42.45L127.37 42.45L127.38 45.1ZM128.38 41.45L119.5 41.45L119.5 46.1L128.37 46.1L128.38 41.45Z"/>
</svg>
