<svg xmlns="http://www.w3.org/2000/svg" viewBox="0 0 96 96" width="96" height="96">
<path fill="#ffffff" d="M40.46 61.58L38.05 65.72L38.05 65.8L36.44 62.4C37.44 61.04 44.75 51.27 44.97 51.31L44.28 55L40.46 61.58ZM53 54.76L52.31 51.06C52.53 51.06 59.8 60.79 60.84 62.15L59.23 65.55L59.23 65.47L56.82 61.33L53 54.76ZM48.75 51.44L48.75 51.44L48.75 51.44C49.644 51.567 50.403 52.162 50.74 53C51.011 54.059 51.155 55.147 51.17 56.24L55.55 63.24L55.55 66.24L54 66.24L54 63L52.19 60L52.19 66.28L51.19 66.28L51.19 59L49.35 56.5L49.35 66.27L48.17 66.27L48.17 56.47L46.33 59.13L46.33 66.25L45.33 66.25L45.33 60L43.47 63L43.47 66.21L42 66.21L42 63.21L46.38 56.21C46.381 55.129 46.508 54.052 46.76 53C47.077 52.16 47.815 51.551 48.7 51.4L48.7 51.4L48.75 51.44ZM35.16 44.32C36.251 42.999 37.737 42.063 39.4 41.65C40.641 41.393 41.917 41.356 43.17 41.54C44.034 41.774 44.882 42.061 45.71 42.4L46 48.83C45.598 49.521 44.969 50.051 44.22 50.33C42.631 50.781 40.981 50.984 39.33 50.93C37.618 50.945 35.92 50.626 34.33 49.99C33.28 49.35 32.95 49.13 32.95 49.13C33.483 47.441 34.226 45.825 35.16 44.32L35.16 44.32ZM51.87 42.65C52.698 42.311 53.546 42.024 54.41 41.79C55.663 41.606 56.939 41.643 58.18 41.9C59.843 42.313 61.329 43.249 62.42 44.57C63.354 46.075 64.097 47.691 64.63 49.38C64.63 49.38 64.3 49.61 63.25 50.24C61.66 50.876 59.962 51.195 58.25 51.18C56.599 51.234 54.949 51.031 53.36 50.58C52.611 50.301 51.982 49.771 51.58 49.08L51.87 42.65ZM67.37 50.46L67 49C67 49 66.84 43.17 62.61 40.27C59 37.82 51 39.92 50.49 40.06C49.899 40.193 49.302 40.293 48.7 40.36L48.7 40.3C48.7 40.3 47 40.11 46.53 40C46.06 39.89 39.42 37.45 34.42 40.24C30.22 42.55 30 48.93 30 48.93L29.71 50.51L29.46 51.43L29.46 51.43L29.14 53C29.14 53 31.91 58.91 32.2 59.59C32.452 60.956 32.596 62.341 32.63 63.73L32.2 63.63L32.2 65.14L36.38 67.14L36.44 67.23C36.435 67.551 36.557 67.861 36.78 68.092C37.003 68.322 37.309 68.455 37.63 68.46C38.042 68.456 38.422 68.236 38.63 67.88L48.63 68.25L48.73 68.25L58.73 67.88C58.938 68.236 59.318 68.456 59.73 68.46C60.065 68.477 60.391 68.354 60.632 68.121C60.873 67.888 61.006 67.565 61 67.23L61.16 66.97L64.77 65.27L64.77 63.76L64.34 63.86C64.374 62.471 64.518 61.087 64.77 59.72C64.89 59.44 68.3 53.03 68.3 53.03L67.37 50.46Z"/>
<path fill="#ffffff" d="M79.71 70.12C70.044 73.754 59.825 75.699 49.5 75.87L56.37 70.37L56.17 69.81L48.65 70L48.65 69.9L40.85 69.75L40.65 70.31L47.54 75.92C37.415 75.847 27.374 74.083 17.83 70.7L17.14 70.34C17.163 69.99 17.262 69.648 17.43 69.34C17.76 68.69 23.26 54.57 23.72 53.34C24.18 52.11 26.61 46 27.27 45C28.091 43.36 29.168 41.861 30.46 40.56C32.3 38.92 34.9 36.84 37.46 36.56C40.187 36.502 42.91 36.801 45.56 37.45C46.501 37.64 47.453 37.774 48.41 37.85C49.446 37.831 50.479 37.734 51.5 37.56C54.15 36.911 56.873 36.612 59.6 36.67C62.14 36.91 64.74 38.99 66.6 40.67C67.892 41.971 68.969 43.47 69.79 45.11C70.45 46.11 72.88 52.24 73.35 53.44C73.82 54.64 79.35 68.76 79.64 69.44C79.93 70.12 79.92 69.73 79.85 70.21C79.852 70.24 79.852 70.27 79.85 70.3L79.71 70.12ZM80.92 69.35L77 58.8C76.21 56.65 73.71 50.65 73.41 49.86C73.11 49.07 71.5 45.19 71.5 45.19C71.5 45.19 71.37 41.61 71.17 40.28C70.97 38.95 69.92 32.64 69.59 31.48C69.26 30.32 67.27 23.41 63.89 19.91C60.78 16.69 55.76 15.54 54.89 15.27C54.114 15.063 53.326 14.906 52.53 14.8L52.53 31.38C52.867 31.236 53.225 31.145 53.59 31.11L54.36 31.05C57.037 30.669 59.767 31.082 62.21 32.24C66.09 34.04 67.35 36.4 67.43 36.53L67.38 38.75C65.991 36.752 64.096 35.157 61.89 34.13C59.576 33.028 56.987 32.635 54.45 33L53.66 33.07C52.16 33.17 49.66 35.34 48.84 36.16L48.33 36.16C47.28 35.35 44.2 33.16 42.68 33.1L41.89 33C39.351 32.63 36.758 33.02 34.44 34.12C32.234 35.148 30.34 36.742 28.95 38.74L28.95 36.43C29.03 36.3 30.2 34.03 34.08 32.23C36.54 31.046 39.296 30.618 42 31L42.77 31.06C43.422 31.144 44.055 31.34 44.64 31.64L44.64 14.64C43.801 14.751 42.969 14.915 42.15 15.13C41.26 15.4 36.24 16.55 33.15 19.77C29.78 23.27 27.78 30.18 27.45 31.34C27.12 32.5 26.07 38.81 25.87 40.14C25.67 41.47 25.54 45.05 25.54 45.05C25.54 45.05 23.88 49 23.58 49.76C23.28 50.52 20.78 56.55 20 58.7L16.11 69.24C15.991 69.563 15.991 69.917 16.11 70.24L16.11 70.24L16.11 70.24C16.229 70.579 16.424 70.887 16.68 71.14L16.68 71.14L17.32 72.14L17.44 72.14C27.363 75.701 37.828 77.515 48.37 77.5C58.831 77.437 69.205 75.598 79.05 72.06L78.87 72.25L79.42 71.92L80.05 71.67L80 71.53C80.112 71.446 80.219 71.356 80.32 71.26C80.858 70.784 81.089 70.049 80.92 69.35L80.92 69.35Z"/>
<path fill="#ffffff" d="M50.35 32.67L50.35 14.47L50.11 14.41L50.11 13.66L48.61 13.57L48.61 13.45L47.33 13.55L46.74 14.3L46.62 14.3L46.46 32.63C47.189 33.084 47.887 33.585 48.55 34.13C49.092 33.576 49.696 33.086 50.35 32.67L50.35 32.67Z"/>
</svg>
