<svg xmlns="http://www.w3.org/2000/svg" viewBox="0 0 96 96" width="96" height="96">
<path fill="#ffffff" d="M54.34 55.48L54.25 55.48C53.135 56.082 51.944 56.532 50.71 56.82C48.811 57.055 46.985 56.008 46.23 54.25L47.42 53.55L48.22 53.76L48.62 55.18L49.32 55.5L49.93 56.58L50.69 56.01L50.69 55.89C50.51 54.89 50.25 52.3 51.18 51.89L51.18 51.89L52.42 51.57L54.5 51.75C55.61 54.86 54.34 55.48 54.34 55.48L54.34 55.48ZM87.81 48.14C87.149 47.697 86.33 47.559 85.56 47.76L84.22 48.08L84.22 41.53L83.33 41.53L83.33 40.76C83.33 41.398 82.99 41.987 82.438 42.306C81.885 42.625 81.205 42.625 80.652 42.306C80.1 41.987 79.76 41.398 79.76 40.76L79.76 41.53L78.38 41.53L78.38 39.86L61.08 39.76L61.08 41.59L58.19 41.59L58.19 38.59L57.48 38.59L57.19 37.11L55.8 37.11L54.55 35.57C54.328 35.299 53.99 35.151 53.64 35.17C53.292 35.219 52.98 35.411 52.78 35.7L51.78 37.11L48.88 37.11L48.33 38.59L40.2 38.59L40.2 37.36L46.75 37.36L46.75 36.18L48.07 36.18L49.28 35.62L49.28 35.3L49.92 35.3L49.92 34.41L49.3 34.41L49.3 34.13L48.09 33.56L46.76 33.56L46.76 30.56L39.41 30.56L39.41 31C38.462 30.853 37.495 30.887 36.56 31.1L36.26 31.18L36.26 31.35L31.34 30L26 30L26 37.73L31.33 37.73L36.33 36.73L36.33 38.73L19.1 38.73L19.1 41.73L18.34 41.73L18.34 40.9C18.34 41.538 18 42.127 17.448 42.446C16.895 42.765 16.215 42.765 15.663 42.446C15.11 42.127 14.77 41.538 14.77 40.9L14.77 41.73L14.36 41.73L9.76 41L9.76 41C9.114 41 8.59 41.524 8.59 42.17L8.59 42.62L8.11 42.62L8.11 45.51L8.54 45.51L8.54 48.51C8.54 49.156 9.064 49.68 9.71 49.68L9.71 49.68L14.33 49.1L15.1 49.1L15.1 50.41L21.25 50.41L21.25 49.17L30.12 49.17L30.12 49.39L34.88 49.86L36.26 51.24L36.26 51.24C36.33 51.3 36.92 51.86 35.89 53.11C34.86 54.36 30.64 60.9 30.32 61.87C30.23 62.11 29.42 64.35 31.07 65.53L34.99 67.84C35.198 67.956 35.432 68.018 35.67 68.02C35.849 68.022 36.027 67.985 36.19 67.91C36.795 67.526 37.169 66.866 37.19 66.15L37.19 66.1L37.04 64.62L42.56 56.41L45.47 54.7C46.306 56.472 48.062 57.629 50.02 57.7C50.278 57.701 50.535 57.685 50.79 57.65C52.128 57.342 53.417 56.851 54.62 56.19C54.94 56.03 56.36 55.1 55.29 51.82L57.88 52.04L66.88 52.04C66.88 52.09 66.88 52.15 66.88 52.2C67.397 53.404 68.636 54.133 69.94 54L70 54L86 53C86.799 52.978 87.554 52.629 88.091 52.037C88.627 51.444 88.898 50.657 88.84 49.86C88.729 49.176 88.361 48.561 87.81 48.14L87.81 48.14Z"/>
<path fill="#ffffff" d="M61.62 43.41L59.98 43.41L59.98 43.81L61.22 43.81L61.22 46.64L59.98 46.64L59.98 47.04L61.62 47.04L61.62 43.41L61.62 43.41Z"/>
<path fill="#ffffff" d="M79.55 46.64L78.31 46.64L78.31 43.81L79.55 43.81L79.55 43.41L77.91 43.41L77.91 47.04L79.55 47.04L79.55 46.64L79.55 46.64Z"/>
<path fill="#ffffff" d="M69.74 52.19L69.74 51.92L71 51.75L71.91 50.83L72.61 50.83L72.67 51.92L69.74 52.19ZM71.74 50.43L70.82 51.37L69.34 51.58L69.42 52.63L73.1 52.25L73 50.39L71.74 50.43Z"/>
</svg>
