<svg xmlns="http://www.w3.org/2000/svg" viewBox="0 0 96 96" width="96" height="96">
<path fill="#ffffff" d="M51.5 57.6L51.5 64C57.7 62.7 62.7 57.7 64 51.5L57.6 51.5L57.6 44.5L64 44.5C62.7 38.3 57.7 33.3 51.5 32L51.5 38.4L44.5 38.4L44.5 32C38.3 33.3 33.3 38.3 32 44.5L38.4 44.5L38.4 51.5L32 51.5C33.3 57.7 38.3 62.7 44.5 64L44.5 57.6L51.5 57.6L51.5 57.6ZM44.5 80.5L44.5 71.2C34.4 69.6 26.3 61.6 24.8 51.5L15.5 51.5L15.5 44.5L24.8 44.5C26.4 34.4 34.4 26.3 44.5 24.8L44.5 15.5L51.5 15.5L51.5 24.8C61.7 26.4 69.7 34.4 71.2 44.5L80.5 44.5L80.5 51.5L71.2 51.5C69.6 61.7 61.6 69.7 51.5 71.2L51.5 80.5L44.5 80.5L44.5 80.5Z"/>
<path fill="#ffffff" d="M44.5 44.5L51.5 44.5L51.5 51.5L44.5 51.5L44.5 44.5Z"/>
</svg>
