<svg xmlns="http://www.w3.org/2000/svg" viewBox="0 0 96 96" width="96" height="96">
<path fill="#ffffff" d="M65.19 61.47L52.19 59.85C50.182 59.59 48.507 58.191 47.893 56.261C47.28 54.331 47.84 52.221 49.33 50.85L45.76 50.39C43.625 50.149 41.857 48.621 41.308 46.543C40.759 44.466 41.542 42.264 43.28 41C42.357 40.452 41.634 39.621 41.22 38.63C40.976 38.821 40.742 39.024 40.52 39.24C39.826 39.787 39.249 40.467 38.82 41.24C38.56 41.61 38.16 42.13 37.72 42.67C36.96 43.46 36.11 44.37 35.27 45.31L33.83 34.12C33.415 31.839 31.262 30.301 28.969 30.647C26.676 30.993 25.074 33.098 25.35 35.4L27.8 54.4C27.85 55.506 27.991 56.607 28.22 57.69L28.22 57.69C28.258 57.925 28.318 58.156 28.4 58.38C28.51 58.82 28.63 59.25 28.77 59.68C29.312 61.699 30.184 63.615 31.35 65.35L31.69 65.35C31.9 65.63 32.09 65.92 32.31 66.2L32.31 66.56L33.45 67.44C39.831 74.175 49.937 75.79 58.1 71.38C59.915 70.561 61.531 69.36 62.84 67.86C64.74 65.96 66.245 63.703 67.27 61.22C66.818 61.353 66.351 61.423 65.88 61.43C65.651 61.458 65.421 61.472 65.19 61.47L65.19 61.47Z"/>
<path fill="#ffffff" d="M47.81 30.74L47.81 30.74L62.66 32.85C64.157 33.033 65.523 31.976 65.72 30.48C65.814 29.768 65.62 29.048 65.18 28.48C64.727 27.917 64.069 27.557 63.35 27.48L48.5 25.33L48.16 25.33C46.783 25.333 45.62 26.355 45.44 27.72C45.346 28.432 45.54 29.152 45.98 29.72C46.429 30.291 47.088 30.658 47.81 30.74L47.81 30.74Z"/>
<path fill="#ffffff" d="M66.21 53.59L53.2 52L52.85 52C51.469 51.998 50.301 53.021 50.12 54.39C50.026 55.102 50.22 55.822 50.66 56.39C51.113 56.953 51.771 57.313 52.49 57.39L65.5 59C67.003 59.189 68.378 58.131 68.58 56.63C68.674 55.918 68.48 55.198 68.04 54.63C67.594 54.052 66.935 53.677 66.21 53.59L66.21 53.59Z"/>
<path fill="#ffffff" d="M68.48 46.07C68.027 45.507 67.369 45.147 66.65 45.07L66.65 45.07L46.77 42.46L46.43 42.46C45.049 42.458 43.881 43.481 43.7 44.85C43.606 45.562 43.8 46.282 44.24 46.85C44.693 47.413 45.351 47.773 46.07 47.85L65.95 50.41C67.432 50.583 68.783 49.546 69 48.07C69.1 47.361 68.913 46.641 68.48 46.07L68.48 46.07Z"/>
<path fill="#ffffff" d="M45.66 39.23L45.66 39.23L65.54 41.79C67.039 41.973 68.408 40.917 68.61 39.42C68.704 38.708 68.51 37.988 68.07 37.42C67.617 36.857 66.959 36.497 66.24 36.42L46.36 33.82L46.02 33.82C44.639 33.818 43.471 34.841 43.29 36.21C43.196 36.922 43.39 37.642 43.83 38.21C44.279 38.781 44.938 39.148 45.66 39.23L45.66 39.23Z"/>
</svg>
